<svg width="23" height="21" viewBox="0 0 23 21" fill="none" xmlns="http://www.w3.org/2000/svg">
<path d="M7.26384 20.308C5.30384 20.308 3.74518 19.7573 2.58784 18.656C1.44918 17.536 0.879844 16.0333 0.879844 14.148V6.252C0.879844 4.38533 1.44918 2.91067 2.58784 1.828C3.74518 0.726666 5.30384 0.176 7.26384 0.176C9.22384 0.176 10.7825 0.726666 11.9398 1.828C13.1158 2.91067 13.7038 4.38533 13.7038 6.252V14.148C13.7038 16.0333 13.1158 17.536 11.9398 18.656C10.7825 19.7573 9.22384 20.308 7.26384 20.308ZM7.26384 17.48C8.23451 17.48 9.00918 17.2 9.58784 16.64C10.1665 16.0613 10.4558 15.2867 10.4558 14.316V6.14C10.4558 5.16933 10.1665 4.404 9.58784 3.844C9.00918 3.26533 8.23451 2.976 7.26384 2.976C6.31184 2.976 5.54651 3.26533 4.96784 3.844C4.40784 4.404 4.12784 5.16933 4.12784 6.14V14.316C4.12784 15.2867 4.40784 16.0613 4.96784 16.64C5.54651 17.2 6.31184 17.48 7.26384 17.48ZM19.2691 0.483999C19.4184 0.427999 19.5584 0.399999 19.6891 0.399999H22.3771C22.4704 0.399999 22.5451 0.437332 22.6011 0.511999C22.6757 0.567999 22.7131 0.642666 22.7131 0.735999V19.664C22.7131 19.7573 22.6757 19.8413 22.6011 19.916C22.5451 19.972 22.4704 20 22.3771 20H19.8011C19.7077 20 19.6237 19.972 19.5491 19.916C19.4931 19.8413 19.4651 19.7573 19.4651 19.664V3.76C19.4651 3.72267 19.4464 3.69467 19.4091 3.676C19.3717 3.63867 19.3344 3.62933 19.2971 3.648L16.4971 4.516C16.4597 4.53467 16.4131 4.544 16.3571 4.544C16.2824 4.544 16.2171 4.516 16.1611 4.46C16.1237 4.404 16.1051 4.32933 16.1051 4.236L16.0211 2.388C16.0211 2.20133 16.0957 2.07067 16.2451 1.996L19.2691 0.483999Z" fill="#9EFF00"/>
</svg>
