<svg width="30" height="21" viewBox="0 0 30 21" fill="none" xmlns="http://www.w3.org/2000/svg">
<path d="M7.25603 20.308C5.29603 20.308 3.73736 19.7573 2.58003 18.656C1.44136 17.536 0.872031 16.0333 0.872031 14.148V6.252C0.872031 4.38533 1.44136 2.91067 2.58003 1.828C3.73736 0.726666 5.29603 0.176 7.25603 0.176C9.21603 0.176 10.7747 0.726666 11.932 1.828C13.108 2.91067 13.696 4.38533 13.696 6.252V14.148C13.696 16.0333 13.108 17.536 11.932 18.656C10.7747 19.7573 9.21603 20.308 7.25603 20.308ZM7.25603 17.48C8.2267 17.48 9.00136 17.2 9.58003 16.64C10.1587 16.0613 10.448 15.2867 10.448 14.316V6.14C10.448 5.16933 10.1587 4.404 9.58003 3.844C9.00136 3.26533 8.2267 2.976 7.25603 2.976C6.30403 2.976 5.5387 3.26533 4.96003 3.844C4.40003 4.404 4.12003 5.16933 4.12003 6.14V14.316C4.12003 15.2867 4.40003 16.0613 4.96003 16.64C5.5387 17.2 6.30403 17.48 7.25603 17.48ZM20.9861 17.032C20.9488 17.0693 20.9301 17.1067 20.9301 17.144C20.9488 17.1813 20.9861 17.2 21.0421 17.2H29.0221C29.1154 17.2 29.1901 17.2373 29.2461 17.312C29.3208 17.368 29.3581 17.4427 29.3581 17.536V19.664C29.3581 19.7573 29.3208 19.8413 29.2461 19.916C29.1901 19.972 29.1154 20 29.0221 20H16.9821C16.8888 20 16.8048 19.972 16.7301 19.916C16.6741 19.8413 16.6461 19.7573 16.6461 19.664V17.648C16.6461 17.48 16.7021 17.34 16.8141 17.228C18.2328 15.716 19.8754 13.8587 21.7421 11.656L23.0581 10.116C24.7754 8.11867 25.6341 6.60667 25.6341 5.58C25.6341 4.81467 25.3634 4.18933 24.8221 3.704C24.2808 3.21867 23.5808 2.976 22.7221 2.976C21.8634 2.976 21.1634 3.21867 20.6221 3.704C20.0994 4.18933 19.8381 4.83333 19.8381 5.636V6.364C19.8381 6.45733 19.8008 6.54133 19.7261 6.616C19.6701 6.672 19.5954 6.7 19.5021 6.7H16.8981C16.8048 6.7 16.7208 6.672 16.6461 6.616C16.5901 6.54133 16.5621 6.45733 16.5621 6.364V5.16C16.5994 4.152 16.8888 3.27467 17.4301 2.528C17.9714 1.78133 18.6994 1.20267 19.6141 0.791999C20.5474 0.381333 21.5834 0.176 22.7221 0.176C23.9728 0.176 25.0648 0.409333 25.9981 0.875999C26.9314 1.34267 27.6501 1.98667 28.1541 2.808C28.6581 3.61067 28.9101 4.516 28.9101 5.524C28.9101 7.05467 28.0981 8.81867 26.4741 10.816C25.5781 11.936 24.1034 13.616 22.0501 15.856L20.9861 17.032Z" fill="white"/>
</svg>
