<svg width="28" height="21" viewBox="0 0 28 21" fill="none" xmlns="http://www.w3.org/2000/svg">
<path d="M6.52947 20.308C4.56947 20.308 3.0108 19.7573 1.85347 18.656C0.714802 17.536 0.145469 16.0333 0.145469 14.148V6.252C0.145469 4.38533 0.714802 2.91067 1.85347 1.828C3.0108 0.726666 4.56947 0.176 6.52947 0.176C8.48947 0.176 10.0481 0.726666 11.2055 1.828C12.3815 2.91067 12.9695 4.38533 12.9695 6.252V14.148C12.9695 16.0333 12.3815 17.536 11.2055 18.656C10.0481 19.7573 8.48947 20.308 6.52947 20.308ZM6.52947 17.48C7.50014 17.48 8.2748 17.2 8.85347 16.64C9.43214 16.0613 9.72147 15.2867 9.72147 14.316V6.14C9.72147 5.16933 9.43214 4.404 8.85347 3.844C8.2748 3.26533 7.50014 2.976 6.52947 2.976C5.57747 2.976 4.81214 3.26533 4.23347 3.844C3.67347 4.404 3.39347 5.16933 3.39347 6.14V14.316C3.39347 15.2867 3.67347 16.0613 4.23347 16.64C4.81214 17.2 5.57747 17.48 6.52947 17.48ZM27.3995 10.676C27.7729 11.572 27.9595 12.5987 27.9595 13.756C27.9595 14.8013 27.8009 15.7253 27.4835 16.528C27.0542 17.704 26.3449 18.6187 25.3555 19.272C24.3662 19.9067 23.1715 20.224 21.7715 20.224C20.3902 20.224 19.1862 19.8787 18.1595 19.188C17.1515 18.4787 16.4329 17.5267 16.0035 16.332C15.7795 15.7533 15.6489 14.9973 15.6115 14.064C15.6115 13.84 15.7235 13.728 15.9475 13.728H18.5515C18.7755 13.728 18.8875 13.84 18.8875 14.064C18.9249 14.6613 19.0182 15.1373 19.1675 15.492C19.3355 16.0893 19.6435 16.5653 20.0915 16.92C20.5582 17.256 21.1182 17.424 21.7715 17.424C23.0035 17.424 23.8529 16.864 24.3195 15.744C24.5622 15.2027 24.6835 14.5027 24.6835 13.644C24.6835 12.692 24.5435 11.908 24.2635 11.292C23.7782 10.2467 22.9382 9.724 21.7435 9.724C21.4262 9.724 20.9969 9.91067 20.4555 10.284C20.3809 10.3213 20.3155 10.34 20.2595 10.34C20.1662 10.34 20.0729 10.284 19.9795 10.172L18.6915 8.38C18.6355 8.28667 18.6075 8.212 18.6075 8.156C18.6075 8.06267 18.6449 7.97867 18.7195 7.904L23.3395 3.368C23.3769 3.33067 23.3862 3.29333 23.3675 3.256C23.3489 3.21867 23.3115 3.2 23.2555 3.2H16.2555C16.1622 3.2 16.0782 3.172 16.0035 3.116C15.9475 3.04133 15.9195 2.95733 15.9195 2.864V0.735999C15.9195 0.642666 15.9475 0.567999 16.0035 0.511999C16.0782 0.437332 16.1622 0.399999 16.2555 0.399999H27.4275C27.5209 0.399999 27.5955 0.437332 27.6515 0.511999C27.7262 0.567999 27.7635 0.642666 27.7635 0.735999V3.172C27.7635 3.34 27.7075 3.48 27.5955 3.592L23.5915 7.624C23.5169 7.69867 23.5542 7.75467 23.7035 7.792C25.4395 8.03467 26.6715 8.996 27.3995 10.676Z" fill="white"/>
</svg>
