<svg width="30" height="21" viewBox="0 0 30 21" fill="none" xmlns="http://www.w3.org/2000/svg">
<path d="M6.77752 20.308C4.81752 20.308 3.25885 19.7573 2.10152 18.656C0.962849 17.536 0.393516 16.0333 0.393516 14.148V6.252C0.393516 4.38533 0.962849 2.91067 2.10152 1.828C3.25885 0.726666 4.81752 0.176 6.77752 0.176C8.73752 0.176 10.2962 0.726666 11.4535 1.828C12.6295 2.91067 13.2175 4.38533 13.2175 6.252V14.148C13.2175 16.0333 12.6295 17.536 11.4535 18.656C10.2962 19.7573 8.73752 20.308 6.77752 20.308ZM6.77752 17.48C7.74818 17.48 8.52285 17.2 9.10152 16.64C9.68018 16.0613 9.96952 15.2867 9.96952 14.316V6.14C9.96952 5.16933 9.68018 4.404 9.10152 3.844C8.52285 3.26533 7.74818 2.976 6.77752 2.976C5.82552 2.976 5.06018 3.26533 4.48152 3.844C3.92152 4.404 3.64152 5.16933 3.64152 6.14V14.316C3.64152 15.2867 3.92152 16.0613 4.48152 16.64C5.06018 17.2 5.82552 17.48 6.77752 17.48ZM29.3836 11.936C29.4769 11.936 29.5516 11.9733 29.6076 12.048C29.6822 12.104 29.7196 12.1787 29.7196 12.272V14.512C29.7196 14.6053 29.6822 14.6893 29.6076 14.764C29.5516 14.82 29.4769 14.848 29.3836 14.848H28.2076C28.1142 14.848 28.0676 14.8947 28.0676 14.988V19.664C28.0676 19.7573 28.0302 19.8413 27.9556 19.916C27.8996 19.972 27.8249 20 27.7316 20H25.1556C25.0622 20 24.9782 19.972 24.9036 19.916C24.8476 19.8413 24.8196 19.7573 24.8196 19.664V14.988C24.8196 14.8947 24.7729 14.848 24.6796 14.848H16.1676C16.0742 14.848 15.9902 14.82 15.9156 14.764C15.8596 14.6893 15.8316 14.6053 15.8316 14.512V12.72C15.8316 12.608 15.8596 12.468 15.9156 12.3L21.2076 0.651999C21.2822 0.483999 21.4129 0.399999 21.5996 0.399999H24.3436C24.4742 0.399999 24.5582 0.437332 24.5956 0.511999C24.6516 0.567999 24.6516 0.661333 24.5956 0.791999L19.6116 11.768C19.5929 11.8053 19.5929 11.8427 19.6116 11.88C19.6302 11.9173 19.6582 11.936 19.6956 11.936H24.6796C24.7729 11.936 24.8196 11.8893 24.8196 11.796V7.988C24.8196 7.89467 24.8476 7.82 24.9036 7.764C24.9782 7.68933 25.0622 7.652 25.1556 7.652H27.7316C27.8249 7.652 27.8996 7.68933 27.9556 7.764C28.0302 7.82 28.0676 7.89467 28.0676 7.988V11.796C28.0676 11.8893 28.1142 11.936 28.2076 11.936H29.3836Z" fill="white"/>
</svg>
