<svg width="29" height="21" viewBox="0 0 29 21" fill="none" xmlns="http://www.w3.org/2000/svg">
<path d="M6.54314 20.308C4.58314 20.308 3.02447 19.7573 1.86714 18.656C0.728474 17.536 0.159141 16.0333 0.159141 14.148V6.252C0.159141 4.38533 0.728474 2.91067 1.86714 1.828C3.02447 0.726666 4.58314 0.176 6.54314 0.176C8.50314 0.176 10.0618 0.726666 11.2191 1.828C12.3951 2.91067 12.9831 4.38533 12.9831 6.252V14.148C12.9831 16.0333 12.3951 17.536 11.2191 18.656C10.0618 19.7573 8.50314 20.308 6.54314 20.308ZM6.54314 17.48C7.51381 17.48 8.28847 17.2 8.86714 16.64C9.44581 16.0613 9.73514 15.2867 9.73514 14.316V6.14C9.73514 5.16933 9.44581 4.404 8.86714 3.844C8.28847 3.26533 7.51381 2.976 6.54314 2.976C5.59114 2.976 4.82581 3.26533 4.24714 3.844C3.68714 4.404 3.40714 5.16933 3.40714 6.14V14.316C3.40714 15.2867 3.68714 16.0613 4.24714 16.64C4.82581 17.2 5.59114 17.48 6.54314 17.48ZM27.9172 11.208C28.1599 12.048 28.2812 12.916 28.2812 13.812C28.2812 14.6893 28.1599 15.52 27.9172 16.304C27.5252 17.4987 26.8065 18.4507 25.7612 19.16C24.7159 19.8507 23.4932 20.196 22.0932 20.196C20.7119 20.196 19.5079 19.86 18.4812 19.188C17.4545 18.4973 16.7359 17.5733 16.3252 16.416C16.1759 16.0053 16.0545 15.5387 15.9612 15.016V14.96C15.9612 14.7547 16.0732 14.652 16.2972 14.652H18.9572C19.1439 14.652 19.2652 14.7547 19.3212 14.96C19.3399 15.072 19.3865 15.24 19.4612 15.464C19.6665 16.08 19.9932 16.556 20.4412 16.892C20.8892 17.228 21.4305 17.396 22.0652 17.396C22.7185 17.396 23.2785 17.2187 23.7452 16.864C24.2119 16.4907 24.5385 15.9867 24.7252 15.352C24.8932 14.904 24.9772 14.3907 24.9772 13.812C24.9772 13.2707 24.9025 12.7387 24.7532 12.216C24.6225 11.6 24.3239 11.1333 23.8572 10.816C23.3905 10.48 22.8212 10.312 22.1492 10.312C21.5145 10.312 20.9359 10.4613 20.4132 10.76C19.9092 11.04 19.5825 11.4133 19.4332 11.88C19.3585 12.0667 19.2279 12.16 19.0412 12.16H16.3252C16.2319 12.16 16.1479 12.132 16.0732 12.076C16.0172 12.0013 15.9892 11.9173 15.9892 11.824V0.735999C15.9892 0.642666 16.0172 0.567999 16.0732 0.511999C16.1479 0.437332 16.2319 0.399999 16.3252 0.399999H27.2172C27.3105 0.399999 27.3852 0.437332 27.4412 0.511999C27.5159 0.567999 27.5532 0.642666 27.5532 0.735999V2.864C27.5532 2.95733 27.5159 3.04133 27.4412 3.116C27.3852 3.172 27.3105 3.2 27.2172 3.2H19.3772C19.2839 3.2 19.2372 3.24667 19.2372 3.34L19.2092 8.38C19.2092 8.45467 19.2279 8.50133 19.2652 8.52C19.3025 8.52 19.3399 8.50133 19.3772 8.464C20.2545 7.81067 21.3092 7.484 22.5412 7.484C23.8479 7.484 24.9772 7.82 25.9292 8.492C26.8999 9.14533 27.5625 10.0507 27.9172 11.208Z" fill="white"/>
</svg>
