<svg width="29" height="21" viewBox="0 0 29 21" fill="none" xmlns="http://www.w3.org/2000/svg">
<path d="M6.55681 20.308C4.59681 20.308 3.03815 19.7573 1.88081 18.656C0.742146 17.536 0.172813 16.0333 0.172813 14.148V6.252C0.172813 4.38533 0.742146 2.91067 1.88081 1.828C3.03815 0.726666 4.59681 0.176 6.55681 0.176C8.51681 0.176 10.0755 0.726666 11.2328 1.828C12.4088 2.91067 12.9968 4.38533 12.9968 6.252V14.148C12.9968 16.0333 12.4088 17.536 11.2328 18.656C10.0755 19.7573 8.51681 20.308 6.55681 20.308ZM6.55681 17.48C7.52748 17.48 8.30215 17.2 8.88081 16.64C9.45948 16.0613 9.74881 15.2867 9.74881 14.316V6.14C9.74881 5.16933 9.45948 4.404 8.88081 3.844C8.30215 3.26533 7.52748 2.976 6.55681 2.976C5.60481 2.976 4.83948 3.26533 4.26081 3.844C3.70081 4.404 3.42081 5.16933 3.42081 6.14V14.316C3.42081 15.2867 3.70081 16.0613 4.26081 16.64C4.83948 17.2 5.60481 17.48 6.55681 17.48ZM27.5109 10.34C28.0149 11.292 28.2669 12.4493 28.2669 13.812C28.2669 14.9507 28.0802 15.9493 27.7069 16.808C27.2589 17.8907 26.5495 18.7307 25.5789 19.328C24.6269 19.9067 23.4789 20.196 22.1349 20.196C20.7349 20.196 19.5402 19.8787 18.5509 19.244C17.5615 18.5907 16.8522 17.6853 16.4229 16.528C16.1242 15.744 15.9749 14.8293 15.9749 13.784V5.244C15.9749 4.236 16.2269 3.34933 16.7309 2.584C17.2349 1.81867 17.9349 1.23067 18.8309 0.819998C19.7455 0.390666 20.7909 0.176 21.9669 0.176C23.1055 0.176 24.1135 0.381333 24.9909 0.791999C25.8869 1.20267 26.5775 1.78133 27.0629 2.528C27.5669 3.27467 27.8189 4.13333 27.8189 5.104V5.72C27.8189 5.81333 27.7815 5.89733 27.7069 5.972C27.6509 6.028 27.5762 6.056 27.4829 6.056H24.9069C24.8135 6.056 24.7295 6.028 24.6549 5.972C24.5989 5.89733 24.5709 5.81333 24.5709 5.72V5.524C24.5709 4.77733 24.3189 4.17067 23.8149 3.704C23.3295 3.21867 22.7042 2.976 21.9389 2.976C21.1549 2.976 20.5015 3.228 19.9789 3.732C19.4749 4.21733 19.2229 4.852 19.2229 5.636V8.688C19.2229 8.744 19.2415 8.78133 19.2789 8.8C19.3162 8.81867 19.3535 8.80933 19.3909 8.772C20.1749 8.00667 21.2575 7.624 22.6389 7.624C23.7402 7.624 24.7015 7.85733 25.5229 8.324C26.3629 8.79067 27.0255 9.46267 27.5109 10.34ZM24.5989 15.856C24.8789 15.296 25.0189 14.6333 25.0189 13.868C25.0189 13.028 24.8602 12.3093 24.5429 11.712C24.0202 10.816 23.2082 10.368 22.1069 10.368C20.9495 10.368 20.1282 10.8347 19.6429 11.768C19.3629 12.328 19.2229 13.056 19.2229 13.952C19.2229 14.7173 19.3442 15.3427 19.5869 15.828C20.0349 16.8547 20.8749 17.368 22.1069 17.368C23.2829 17.368 24.1135 16.864 24.5989 15.856Z" fill="white"/>
</svg>
