<svg width="29" height="21" viewBox="0 0 29 21" fill="none" xmlns="http://www.w3.org/2000/svg">
<path d="M7.13103 20.308C5.17103 20.308 3.61236 19.7573 2.45503 18.656C1.31636 17.536 0.747031 16.0333 0.747031 14.148V6.252C0.747031 4.38533 1.31636 2.91067 2.45503 1.828C3.61236 0.726666 5.17103 0.176 7.13103 0.176C9.09103 0.176 10.6497 0.726666 11.807 1.828C12.983 2.91067 13.571 4.38533 13.571 6.252V14.148C13.571 16.0333 12.983 17.536 11.807 18.656C10.6497 19.7573 9.09103 20.308 7.13103 20.308ZM7.13103 17.48C8.1017 17.48 8.87636 17.2 9.45503 16.64C10.0337 16.0613 10.323 15.2867 10.323 14.316V6.14C10.323 5.16933 10.0337 4.404 9.45503 3.844C8.87636 3.26533 8.1017 2.976 7.13103 2.976C6.17903 2.976 5.4137 3.26533 4.83503 3.844C4.27503 4.404 3.99503 5.16933 3.99503 6.14V14.316C3.99503 15.2867 4.27503 16.0613 4.83503 16.64C5.4137 17.2 6.17903 17.48 7.13103 17.48ZM18.9011 20C18.6211 20 18.5278 19.8693 18.6211 19.608L24.8091 3.368C24.8464 3.256 24.8091 3.2 24.6971 3.2H18.6771C18.5838 3.2 18.5371 3.24667 18.5371 3.34V4.6C18.5371 4.69333 18.4998 4.77733 18.4251 4.852C18.3691 4.908 18.2944 4.936 18.2011 4.936H16.1851C16.0918 4.936 16.0078 4.908 15.9331 4.852C15.8771 4.77733 15.8491 4.69333 15.8491 4.6V0.735999C15.8491 0.642666 15.8771 0.567999 15.9331 0.511999C16.0078 0.437332 16.0918 0.399999 16.1851 0.399999H27.9731C28.0664 0.399999 28.1411 0.437332 28.1971 0.511999C28.2718 0.567999 28.3091 0.642666 28.3091 0.735999V2.976C28.3091 3.088 28.2811 3.228 28.2251 3.396L22.0651 19.72C22.0091 19.9067 21.8784 20 21.6731 20H18.9011Z" fill="white"/>
</svg>
