<svg width="29" height="21" viewBox="0 0 29 21" fill="none" xmlns="http://www.w3.org/2000/svg">
<path d="M6.50213 20.308C4.54213 20.308 2.98346 19.7573 1.82613 18.656C0.687458 17.536 0.118125 16.0333 0.118125 14.148V6.252C0.118125 4.38533 0.687458 2.91067 1.82613 1.828C2.98346 0.726666 4.54213 0.176 6.50213 0.176C8.46213 0.176 10.0208 0.726666 11.1781 1.828C12.3541 2.91067 12.9421 4.38533 12.9421 6.252V14.148C12.9421 16.0333 12.3541 17.536 11.1781 18.656C10.0208 19.7573 8.46213 20.308 6.50213 20.308ZM6.50213 17.48C7.47279 17.48 8.24746 17.2 8.82613 16.64C9.40479 16.0613 9.69413 15.2867 9.69413 14.316V6.14C9.69413 5.16933 9.40479 4.404 8.82613 3.844C8.24746 3.26533 7.47279 2.976 6.50213 2.976C5.55013 2.976 4.78479 3.26533 4.20613 3.844C3.64613 4.404 3.36613 5.16933 3.36613 6.14V14.316C3.36613 15.2867 3.64613 16.0613 4.20613 16.64C4.78479 17.2 5.55013 17.48 6.50213 17.48ZM27.5122 11.516C27.9229 12.3373 28.1282 13.28 28.1282 14.344C28.1282 15.464 27.8855 16.4813 27.4002 17.396C26.9149 18.2733 26.2055 18.964 25.2722 19.468C24.3389 19.972 23.2375 20.224 21.9682 20.224C20.7175 20.224 19.6069 19.9813 18.6362 19.496C17.6655 18.992 16.9375 18.264 16.4522 17.312C15.9669 16.4347 15.7242 15.436 15.7242 14.316C15.7242 13.308 15.9389 12.356 16.3682 11.46C16.7415 10.6947 17.2735 10.116 17.9642 9.724C18.0575 9.668 18.0669 9.60267 17.9922 9.528C17.5255 9.192 17.1055 8.72533 16.7322 8.128C16.2469 7.344 16.0042 6.476 16.0042 5.524C16.0042 4.348 16.3495 3.29333 17.0402 2.36C17.5442 1.632 18.2255 1.072 19.0842 0.679998C19.9429 0.269333 20.9042 0.0639997 21.9682 0.0639997C23.0695 0.0639997 24.0309 0.269333 24.8522 0.679998C25.6922 1.072 26.3642 1.632 26.8682 2.36C27.5215 3.312 27.8482 4.36667 27.8482 5.524C27.8482 6.55067 27.5962 7.44667 27.0922 8.212C26.7375 8.73467 26.3269 9.164 25.8602 9.5C25.7855 9.57467 25.7855 9.64 25.8602 9.696C26.5695 10.1067 27.1202 10.7133 27.5122 11.516ZM19.5602 4.292C19.3362 4.77733 19.2242 5.20667 19.2242 5.58C19.2242 6.21467 19.3829 6.784 19.7002 7.288C20.1482 8.05333 20.8949 8.436 21.9402 8.436C22.9482 8.436 23.7135 8.044 24.2362 7.26C24.5162 6.84933 24.6562 6.28 24.6562 5.552C24.6562 5.14133 24.5535 4.712 24.3482 4.264C24.1055 3.83467 23.7789 3.49867 23.3682 3.256C22.9575 2.99467 22.4722 2.864 21.9122 2.864C21.3895 2.864 20.9229 2.99467 20.5122 3.256C20.1015 3.49867 19.7842 3.844 19.5602 4.292ZM24.2642 16.276C24.6562 15.7347 24.8522 14.9973 24.8522 14.064C24.8522 13.2053 24.7029 12.5333 24.4042 12.048C23.9375 11.1893 23.1162 10.76 21.9402 10.76C20.8389 10.76 20.0362 11.1707 19.5322 11.992C19.2149 12.496 19.0562 13.196 19.0562 14.092C19.0562 14.9507 19.2242 15.6507 19.5602 16.192C20.0642 17.0133 20.8669 17.424 21.9682 17.424C23.0135 17.424 23.7789 17.0413 24.2642 16.276Z" fill="white"/>
</svg>
