<svg width="37" height="36" viewBox="0 0 37 36" fill="none" xmlns="http://www.w3.org/2000/svg">
<path fill-rule="evenodd" clip-rule="evenodd" d="M33.3309 0.5C32.7053 0.5 32.0937 0.685189 31.5731 1.03223L23.1081 6.67555C20.781 8.22699 18.681 10.0782 16.8587 12.1743C20.3833 13.775 23.2249 16.6166 24.8256 20.1413C26.9217 18.319 28.7729 16.219 30.3244 13.8918L35.9677 5.42681C36.3147 4.90625 36.4999 4.29462 36.4999 3.66898C36.4999 1.9188 35.0811 0.5 33.3309 0.5ZM19.4991 23.8748C20.7967 23.154 22.0372 22.3438 23.2127 21.4519C21.7926 17.981 19.019 15.2073 15.548 13.7872C14.6561 14.9627 13.8459 16.2033 13.1251 17.5008L12.6609 18.3364C15.555 19.1642 17.8358 21.4449 18.6636 24.339L19.4991 23.8748ZM10.2499 20.5C6.79811 20.5 3.99992 23.2982 3.99992 26.75C3.99992 28.1307 2.88064 29.25 1.49992 29.25C1.44332 29.25 1.38698 29.2481 1.331 29.2444C0.870745 29.214 0.431136 29.4395 0.187363 29.8311C-0.0564093 30.2226 -0.0647234 30.7167 0.165734 31.1162C1.6754 33.7336 4.50561 35.5 7.74992 35.5C12.5824 35.5 16.4999 31.5825 16.4999 26.75C16.4999 23.2982 13.7017 20.5 10.2499 20.5Z" fill="#9EFF00"/>
</svg>
