<svg width="103" height="24" viewBox="0 0 103 24" fill="none" xmlns="http://www.w3.org/2000/svg">
<path fill-rule="evenodd" clip-rule="evenodd" d="M83.3196 7.45805C83.7094 8.13059 83.837 8.89576 83.8791 9.75598L83.9344 10.9025V18.92L83.991 20.0678C84.1041 21.9422 85.4864 23.3282 87.3753 23.4461L88.517 23.5026V10.9025L88.5736 9.75598C88.6205 8.90538 88.7468 8.12578 89.1427 7.44843C89.546 6.75368 90.125 6.17727 90.8216 5.77706C91.5181 5.37686 92.3077 5.16695 93.111 5.16841C93.9144 5.16988 94.7032 5.38266 95.3983 5.7854C96.0934 6.18813 96.6703 6.76665 97.0711 7.46287C97.4609 8.1354 97.5824 8.91501 97.6293 9.75598L97.6859 10.8989V18.92L97.7424 20.0678C97.8603 21.9518 99.2319 23.3378 101.127 23.4461L102.268 23.5026V9.75598C102.268 7.3252 101.303 4.99392 99.5846 3.27476C97.8661 1.5556 95.5352 0.589304 93.1045 0.588347C91.8034 0.586975 90.5171 0.863261 89.3314 1.39875C88.1457 1.93424 87.0879 2.71659 86.2287 3.69355C85.3692 2.71698 84.3113 1.93481 83.1257 1.39916C81.9401 0.863518 80.654 0.586696 79.353 0.587144C77.4497 0.587144 75.6836 1.16463 74.2206 2.162C73.3279 1.16583 71.3307 0.587144 70.1842 0.587144V23.5026L71.3307 23.4461C73.2485 23.3197 74.6345 21.9711 74.7091 20.0678L74.7704 18.92V10.9025L74.827 9.75598C74.8751 8.89095 74.9954 8.13059 75.3864 7.45324C75.7901 6.75892 76.3688 6.18265 77.0649 5.78195C77.7609 5.38126 78.5499 5.17017 79.353 5.16976C80.1568 5.16993 80.9464 5.38144 81.6426 5.78308C82.3388 6.18471 82.9171 6.76235 83.3196 7.45805ZM4.87387 23.4473L6.02043 23.5026H23.2067L23.1502 22.3597C22.995 20.4756 21.6607 19.0993 19.7707 18.9765L18.6241 18.92H8.31354L22.0602 5.16855L22.0036 4.02681C21.9146 2.1235 20.5238 0.748359 18.6241 0.643689L17.4776 0.591956L0.29126 0.587144L0.347806 1.7337C0.498193 3.59971 1.85168 5.00493 3.72611 5.11321L4.87387 5.16976H15.1844L1.43781 18.9212L1.49436 20.0678C1.60745 21.9566 2.97057 23.3246 4.87387 23.4461V23.4473ZM65.6858 3.94139C66.7499 5.00531 67.5941 6.26845 68.17 7.65865C68.7459 9.04886 69.0424 10.5389 69.0424 12.0437C69.0424 13.5485 68.7459 15.0385 68.17 16.4287C67.5941 17.8189 66.7499 19.082 65.6858 20.146C63.5359 22.2942 60.621 23.5009 57.5817 23.5009C54.5425 23.5009 51.6276 22.2942 49.4776 20.146C45.0033 15.6716 45.0033 8.41572 49.4776 3.94139C50.5408 2.87782 51.8031 2.03408 53.1923 1.45835C54.5816 0.882621 56.0707 0.586175 57.5745 0.58594C59.0808 0.584894 60.5725 0.880818 61.9643 1.45678C63.3561 2.03275 64.6207 2.87746 65.6858 3.94259V3.94139ZM62.4434 7.18615C63.7322 8.4759 64.4562 10.2246 64.4562 12.0479C64.4562 13.8712 63.7322 15.6199 62.4434 16.9096C61.1537 18.1984 59.405 18.9223 57.5817 18.9223C55.7584 18.9223 54.0097 18.1984 52.72 16.9096C51.4312 15.6199 50.7073 13.8712 50.7073 12.0479C50.7073 10.2246 51.4312 8.4759 52.72 7.18615C54.0097 5.89738 55.7584 5.17343 57.5817 5.17343C59.405 5.17343 61.1537 5.89738 62.4434 7.18615ZM33.5269 0.58594C35.0308 0.586333 36.52 0.882968 37.9092 1.45891C39.2985 2.03485 40.5607 2.87881 41.6238 3.94259C46.0993 8.41572 46.0993 15.6728 41.6238 20.146C39.4738 22.2942 36.5589 23.5009 33.5197 23.5009C30.4805 23.5009 27.5656 22.2942 25.4156 20.146C20.9413 15.6716 20.9413 8.41572 25.4156 3.94139C26.4788 2.87782 27.741 2.03408 29.1303 1.45835C30.5196 0.882621 32.0086 0.586175 33.5125 0.58594H33.5269ZM38.3814 7.18375C39.6706 8.47355 40.3947 10.2225 40.3947 12.0461C40.3947 13.8697 39.6706 15.6186 38.3814 16.9084C37.0917 18.1972 35.343 18.9211 33.5197 18.9211C31.6964 18.9211 29.9477 18.1972 28.658 16.9084C27.3692 15.6187 26.6453 13.87 26.6453 12.0467C26.6453 10.2234 27.3692 8.4747 28.658 7.18495C29.9477 5.89618 31.6964 5.17223 33.5197 5.17223C35.343 5.17223 37.0917 5.89618 38.3814 7.18495V7.18375Z" fill="#E6E6E6"/>
</svg>
